<svg width="884" height="499" viewBox="0 0 884 499" fill="none" xmlns="http://www.w3.org/2000/svg">
<path d="M403.735 192.512L455.915 0.442304C455.96 0.287478 456.063 0.156451 456.204 0.0777718C456.344 -0.000907719 456.51 -0.0208395 456.665 0.0223214L478.755 6.1923C478.908 6.23664 479.037 6.3388 479.116 6.477C479.194 6.61521 479.216 6.77857 479.175 6.93232L427.245 199.012C427.225 199.09 427.189 199.163 427.14 199.226C427.091 199.29 427.029 199.343 426.96 199.383C426.89 199.423 426.813 199.449 426.734 199.459C426.654 199.469 426.573 199.464 426.495 199.442L404.165 193.262C404.088 193.241 404.015 193.205 403.952 193.156C403.888 193.107 403.835 193.046 403.795 192.977C403.755 192.907 403.729 192.83 403.719 192.75C403.709 192.671 403.714 192.59 403.735 192.512Z" fill="white"/>
<path d="M303.935 100.162C304.442 100.569 304.929 100.952 305.395 101.312C331.335 121.619 358.979 143.379 388.325 166.592C388.592 166.799 388.615 167.032 388.395 167.292C383.502 173.139 378.699 179.199 373.985 185.472C373.942 185.53 373.889 185.578 373.827 185.614C373.765 185.65 373.696 185.674 373.624 185.683C373.552 185.692 373.479 185.687 373.409 185.668C373.339 185.649 373.273 185.617 373.215 185.572C337.642 157.466 302.099 129.356 266.585 101.242C266.135 100.882 265.565 100.492 265.015 100.322C264.515 100.176 264.468 99.9422 264.875 99.6222L372.975 14.0722C373.062 14.0047 373.161 13.9551 373.266 13.926C373.372 13.897 373.483 13.8893 373.591 13.9032C373.7 13.9172 373.805 13.9526 373.9 14.0073C373.995 14.0621 374.079 14.1351 374.145 14.2222C378.852 20.4556 383.602 26.4356 388.395 32.1622C388.609 32.4156 388.585 32.6422 388.325 32.8422C360.725 54.7222 333.135 76.6155 305.555 98.5222C305.125 98.8622 304.595 99.2123 304.075 99.3823C303.562 99.5556 303.515 99.8156 303.935 100.162Z" fill="white"/>
<path d="M578.845 99.6923L494.675 32.9022C494.422 32.7022 494.395 32.4756 494.595 32.2222L509.145 14.1222C509.265 13.9741 509.438 13.8793 509.628 13.8587C509.817 13.8381 510.007 13.8933 510.155 14.0122L617.955 99.3823C618.289 99.6423 618.289 99.9022 617.955 100.162L510.015 185.552C509.958 185.6 509.892 185.635 509.82 185.656C509.749 185.677 509.674 185.683 509.599 185.675C509.525 185.667 509.453 185.644 509.387 185.607C509.321 185.57 509.262 185.521 509.215 185.462L494.595 167.252C494.389 166.992 494.415 166.759 494.675 166.552C523.349 143.932 551.022 122.076 577.695 100.982C578.035 100.716 578.399 100.482 578.785 100.282C579.112 100.116 579.132 99.9189 578.845 99.6923Z" fill="white"/>
<path d="M215.505 464.302C219.255 455.902 220.495 445.852 222.275 436.502C223.361 430.796 223.611 426.056 223.025 422.282C221.075 409.632 212.285 403.342 203.025 395.722C189.055 384.232 183.615 370.962 186.045 352.852C187.371 342.986 189.268 333.319 191.735 323.852C192.855 319.546 194.458 315.099 196.545 310.512C203.105 296.086 214.778 288.256 231.565 287.022C246.395 285.932 261.435 288.862 265.045 305.602C267.555 317.192 266.425 329.672 264.775 341.672C264.758 341.795 264.698 341.907 264.606 341.988C264.514 342.069 264.396 342.113 264.275 342.112H239.555C239.464 342.112 239.374 342.092 239.291 342.054C239.209 342.015 239.135 341.959 239.076 341.89C239.018 341.821 238.974 341.739 238.95 341.652C238.925 341.564 238.92 341.472 238.935 341.382C240.075 334.589 240.725 327.629 240.885 320.502C241.015 314.942 240.265 307.602 232.855 307.682C227.235 307.742 223.171 310.509 220.665 315.982C217.005 323.952 215.385 333.132 213.795 341.782C212.575 348.462 212.021 353.459 212.135 356.772C212.625 370.842 224.385 377.912 234.495 385.922C242.888 392.556 247.881 400.856 249.475 410.822C250.415 416.662 250.625 422.462 249.795 428.342C247.988 441.136 245.675 452.709 242.855 463.062C238.865 477.732 230.795 491.112 215.835 495.512C206.948 498.126 198.085 498.746 189.245 497.372C169.345 494.262 168.295 474.752 169.195 458.952C169.681 450.392 170.601 441.736 171.955 432.982C171.969 432.879 172.021 432.784 172.1 432.716C172.179 432.648 172.28 432.611 172.385 432.612H197.555C197.623 432.612 197.69 432.627 197.751 432.657C197.812 432.686 197.867 432.73 197.91 432.783C197.953 432.837 197.983 432.899 198 432.967C198.016 433.034 198.018 433.104 198.005 433.172C196.498 441.099 195.475 449.072 194.935 457.092C194.701 460.466 194.945 463.796 195.665 467.082C196.445 470.642 199.335 472.232 202.845 472.312C208.845 472.446 213.065 469.776 215.505 464.302Z" fill="white"/>
<path d="M609.135 461.692C612.062 453.159 614.366 443.709 616.046 433.342C616.079 433.138 616.182 432.953 616.338 432.819C616.494 432.686 616.691 432.612 616.895 432.612H639.855C640.262 432.612 640.425 432.812 640.345 433.212C637.812 446.165 634.569 458.065 630.616 468.912C626.076 481.392 618.465 493.042 605.195 496.552C598.289 498.372 591.192 498.619 583.905 497.292C574.965 495.672 569.419 490.562 567.265 481.962C566.125 477.389 565.565 472.772 565.585 468.112C565.655 453.672 567.795 439.122 570.195 424.822C573.182 406.976 576.165 389.292 579.145 371.772C581.499 357.979 584.212 344.752 587.285 332.092C589.945 321.162 593.785 309.182 600.515 300.102C608.155 289.792 619.515 286.422 632.445 286.922C651.205 287.652 657.795 298.082 657.955 315.562C658.029 323.842 657.449 332.509 656.215 341.562C656.169 341.929 655.959 342.112 655.585 342.112H632.855C632.768 342.112 632.682 342.092 632.602 342.056C632.523 342.019 632.453 341.966 632.396 341.899C632.339 341.833 632.297 341.755 632.273 341.671C632.248 341.587 632.243 341.499 632.255 341.412C633.249 334.652 633.902 327.775 634.215 320.782C634.445 315.402 634.206 307.642 626.866 307.592C619.896 307.552 616.855 313.302 614.905 319.032C612.545 325.952 610.539 333.809 608.885 342.602C603.519 371.089 598.082 401.925 592.575 435.112C591.289 442.866 590.359 450.519 589.785 458.072C589.559 461.066 589.745 464.159 590.345 467.352C591.635 474.242 601.235 473.032 604.555 469.702C606.415 467.836 607.942 465.166 609.135 461.692Z" fill="white"/>
<path d="M832.725 462.852C836.045 454.192 837.525 444.592 838.995 435.552C840.945 423.642 839.575 413.712 830.465 405.052C826.905 401.672 823.312 398.529 819.685 395.622C804.735 383.642 800.195 370.252 802.915 351.202C804.615 339.342 806.845 328.856 809.605 319.742C810.925 315.369 812.709 311.142 814.955 307.062C823.855 290.902 839.755 285.962 857.475 287.042C871.515 287.892 880.315 294.342 882.375 309.122C883.885 319.982 882.585 331.072 881.435 341.602C881.421 341.743 881.355 341.872 881.252 341.967C881.148 342.061 881.014 342.113 880.875 342.112H856.285C856.184 342.112 856.084 342.09 855.992 342.047C855.899 342.005 855.817 341.943 855.751 341.866C855.685 341.79 855.636 341.7 855.607 341.602C855.579 341.505 855.571 341.403 855.585 341.302C856.732 333.682 857.365 326.592 857.485 320.032C857.575 314.712 856.795 307.562 849.665 307.642C843.605 307.716 839.305 310.869 836.765 317.102C835.199 320.935 833.902 325.172 832.875 329.812C831.202 337.406 829.922 344.422 829.035 350.862C827.629 361.049 830.812 369.355 838.585 375.782C842.705 379.195 846.695 382.396 850.555 385.382C860.255 392.896 865.579 402.399 866.525 413.892C867.445 425.122 865.325 436.922 862.965 448.362C859.665 464.382 855.475 482.372 840.985 491.692C833.605 496.442 823.015 498.132 814.125 498.102C810.172 498.089 806.109 497.472 801.935 496.252C790.695 492.972 786.655 482.742 785.915 471.902C785.025 458.922 786.695 445.952 788.545 433.052C788.585 432.759 788.755 432.612 789.055 432.612H814.275C814.333 432.613 814.391 432.626 814.443 432.651C814.496 432.676 814.542 432.712 814.579 432.757C814.617 432.801 814.643 432.854 814.658 432.91C814.673 432.966 814.676 433.025 814.665 433.082C813.112 441.529 812.079 449.635 811.565 457.402C811.325 461.012 811.345 467.382 813.715 470.082C816.185 472.872 822.115 472.572 825.055 471.452C828.475 470.146 831.032 467.279 832.725 462.852Z" fill="white"/>
<path d="M324.015 437.372C324.084 437.278 324.124 437.167 324.134 437.052C324.143 436.936 324.119 436.82 324.067 436.716C324.014 436.613 323.934 436.526 323.835 436.465C323.735 436.404 323.622 436.372 323.505 436.372L299.135 436.362C298.909 436.362 298.69 436.441 298.516 436.588C298.343 436.734 298.225 436.938 298.185 437.162C294.872 455.876 291.449 475.116 287.915 494.882C287.878 495.084 287.771 495.266 287.612 495.398C287.453 495.529 287.253 495.602 287.045 495.602L262.645 495.612C262.205 495.612 262.025 495.399 262.105 494.972C267.825 462.746 273.509 430.492 279.155 398.212C280.262 391.899 281.359 385.332 282.445 378.512C285.012 362.392 288.199 346.709 292.005 331.462C294.572 321.176 297.955 312.416 302.155 305.182C307.435 296.072 315.445 290.212 325.915 288.162C333.529 286.676 340.992 286.656 348.305 288.102C363.505 291.112 367.425 303.222 367.415 316.832C367.402 326.392 366.412 337.376 364.445 349.782C362.505 361.989 360.462 374.349 358.315 386.862C352.289 422.009 345.999 457.949 339.445 494.682C339.401 494.942 339.266 495.178 339.065 495.348C338.863 495.518 338.609 495.612 338.345 495.612H314.125C313.725 495.612 313.562 495.416 313.635 495.022C317.042 475.902 320.452 456.802 323.865 437.722C323.892 437.596 323.942 437.479 324.015 437.372ZM321.725 317.122C320.092 321.122 318.732 325.452 317.645 330.112C311.535 356.412 307.125 386.722 301.995 415.102C301.984 415.163 301.985 415.225 302 415.285C302.016 415.345 302.044 415.401 302.083 415.449C302.122 415.496 302.171 415.535 302.227 415.562C302.283 415.588 302.344 415.602 302.405 415.602L326.865 415.612C327.419 415.612 327.742 415.339 327.835 414.792C331.215 395.399 334.605 375.866 338.005 356.192C339.305 348.662 340.245 340.922 341.295 333.362C342.085 327.652 344.675 310.652 337.385 308.492C329.515 306.162 324.535 310.262 321.725 317.122Z" fill="white"/>
<path d="M61.9349 289.792L25.7349 495.302C25.7208 495.388 25.6771 495.466 25.6112 495.523C25.5454 495.579 25.4618 495.611 25.3749 495.612H0.364904C0.31167 495.612 0.259223 495.599 0.211141 495.576C0.163059 495.554 0.120485 495.521 0.0863088 495.48C0.052133 495.439 0.0271599 495.391 0.0131123 495.34C-0.000935172 495.289 -0.00373521 495.235 0.00490311 495.182L36.2049 289.672C36.219 289.587 36.2628 289.509 36.3286 289.452C36.3944 289.395 36.4781 289.364 36.5649 289.362H61.5749C61.6281 289.363 61.6806 289.375 61.7287 289.398C61.7768 289.421 61.8193 289.454 61.8535 289.495C61.8877 289.536 61.9127 289.583 61.9267 289.635C61.9407 289.686 61.9435 289.74 61.9349 289.792Z" fill="white"/>
<path d="M125.335 411.322C125.502 413.156 125.745 413.166 126.065 411.352L147.505 290.212C147.605 289.646 147.942 289.362 148.515 289.362L172.475 289.372C173.168 289.372 173.522 289.699 173.535 290.352C173.535 290.412 173.445 290.586 173.265 290.872C173.158 291.039 173.088 291.212 173.055 291.392C161.095 359.346 149.152 427.152 137.225 494.812C137.132 495.339 136.818 495.602 136.285 495.602L114.375 495.612C114.244 495.613 114.118 495.566 114.02 495.479C113.922 495.392 113.86 495.272 113.845 495.142L100.535 384.372C100.415 383.386 100.268 383.382 100.095 384.362L80.5551 494.932C80.5221 495.123 80.4226 495.296 80.2744 495.42C80.1262 495.545 79.9387 495.613 79.7451 495.612H55.3651C54.8985 495.612 54.7051 495.379 54.7851 494.912L90.8751 290.002C90.9058 289.826 90.9979 289.666 91.1351 289.55C91.2724 289.435 91.4459 289.372 91.6251 289.372L113.485 289.362C114.192 289.362 114.495 289.712 114.395 290.412C114.348 290.759 114.358 291.326 114.425 292.112C118.132 332.319 121.768 372.056 125.335 411.322Z" fill="white"/>
<path d="M439.725 412.662C439.845 411.722 439.979 410.832 440.125 409.992C446.952 370.519 453.802 331.066 460.675 291.632C460.755 291.192 460.819 290.756 460.865 290.322C460.932 289.682 461.289 289.362 461.935 289.362L486.595 289.372C486.68 289.373 486.762 289.395 486.836 289.437C486.909 289.479 486.97 289.539 487.013 289.611C487.057 289.683 487.08 289.766 487.083 289.85C487.085 289.934 487.065 290.018 487.025 290.092C486.932 290.272 486.865 290.462 486.825 290.662C474.765 358.796 462.779 426.812 450.865 494.712C450.821 494.961 450.69 495.187 450.497 495.349C450.303 495.512 450.058 495.602 449.805 495.602L428.045 495.612C427.899 495.613 427.757 495.56 427.647 495.462C427.536 495.365 427.465 495.23 427.445 495.082C423.085 459.029 418.795 423.239 414.575 387.712C414.429 386.479 414.192 385.249 413.865 384.022C413.739 383.562 413.659 383.569 413.625 384.042C413.539 385.276 413.379 386.546 413.145 387.852C406.619 424.299 400.302 459.966 394.195 494.852C394.156 495.066 394.043 495.26 393.876 495.399C393.71 495.538 393.501 495.613 393.285 495.612L368.915 495.602C368.482 495.602 368.302 495.389 368.375 494.962L404.455 290.122C404.542 289.616 404.842 289.362 405.355 289.362L427.015 289.372C427.515 289.372 427.789 289.622 427.835 290.122C431.495 330.076 435.185 370.146 438.905 410.332C438.979 411.159 439.152 411.949 439.425 412.702C439.565 413.102 439.665 413.089 439.725 412.662Z" fill="white"/>
<path d="M526.685 377.102L553.875 377.122C554.381 377.122 554.591 377.372 554.505 377.872L551.195 396.642C551.081 397.282 550.695 397.602 550.035 397.602L523.535 397.622C522.975 397.622 522.645 397.896 522.545 398.442L510.145 469.352C510.135 469.414 510.138 469.476 510.154 469.536C510.171 469.596 510.2 469.651 510.24 469.699C510.28 469.746 510.329 469.785 510.385 469.811C510.441 469.838 510.503 469.852 510.565 469.852L543.085 469.862C543.144 469.863 543.203 469.876 543.256 469.902C543.31 469.927 543.358 469.964 543.396 470.01C543.434 470.055 543.461 470.109 543.477 470.166C543.492 470.224 543.495 470.284 543.485 470.342L539.035 494.932C539.002 495.123 538.902 495.296 538.754 495.42C538.606 495.545 538.418 495.613 538.225 495.612H480.345C479.885 495.612 479.695 495.389 479.775 494.942C491.641 427.542 503.548 360.016 515.495 292.362C515.615 291.696 515.678 291.026 515.685 290.352C515.685 289.692 516.015 289.362 516.675 289.362L574.815 289.372C574.903 289.372 574.989 289.395 575.066 289.438C575.143 289.482 575.207 289.544 575.252 289.62C575.297 289.695 575.322 289.781 575.324 289.869C575.327 289.957 575.306 290.045 575.265 290.122C575.138 290.356 575.051 290.599 575.005 290.852C573.858 297.032 572.785 303.246 571.785 309.492C571.718 309.906 571.478 310.112 571.065 310.112L538.365 310.122C538.301 310.122 538.239 310.144 538.191 310.184C538.143 310.225 538.112 310.281 538.105 310.342L526.355 376.702C526.346 376.751 526.348 376.801 526.36 376.848C526.373 376.896 526.396 376.941 526.427 376.979C526.458 377.017 526.498 377.048 526.542 377.069C526.587 377.09 526.635 377.102 526.685 377.102Z" fill="white"/>
<path d="M745.735 394.392C745.755 394.286 745.712 394.219 745.605 394.192C745.525 394.172 745.472 394.199 745.445 394.272C733.778 427.279 721.962 460.772 709.995 494.752C709.908 495.004 709.744 495.221 709.527 495.376C709.311 495.53 709.051 495.612 708.785 495.612H694.865C694.472 495.612 694.275 495.412 694.275 495.012C694.255 461.506 694.362 428.006 694.595 394.512C694.595 394.379 694.525 394.306 694.385 394.292H694.375C694.295 394.286 694.245 394.322 694.225 394.402C688.265 428.136 682.395 461.636 676.615 494.902C676.528 495.369 676.248 495.602 675.775 495.602L651.435 495.612C650.942 495.612 650.738 495.369 650.825 494.882L686.885 290.142C686.978 289.629 687.285 289.372 687.805 289.372C695.245 289.352 702.512 289.356 709.605 289.382C709.855 289.382 710.094 289.479 710.274 289.653C710.453 289.826 710.557 290.063 710.565 290.312C710.565 290.366 710.512 290.472 710.405 290.632C710.305 290.786 710.258 290.956 710.265 291.142L714.555 417.662C714.568 418.122 714.805 418.356 715.265 418.362C715.818 418.376 716.332 418.292 716.805 418.112C717.158 417.972 717.405 417.726 717.545 417.372C734.005 374.646 750.378 332.149 766.665 289.882C766.798 289.536 767.055 289.362 767.435 289.362L789.585 289.382C789.674 289.383 789.762 289.404 789.841 289.444C789.92 289.485 789.988 289.543 790.04 289.615C790.092 289.686 790.126 289.768 790.139 289.855C790.152 289.941 790.144 290.03 790.115 290.112C789.875 290.806 789.698 291.482 789.585 292.142C777.392 361.282 765.512 428.789 753.945 494.662C753.832 495.296 753.455 495.612 752.815 495.612H728.635C728.182 495.612 727.995 495.389 728.075 494.942C733.928 461.636 739.815 428.119 745.735 394.392Z" fill="white"/>
</svg>
